<svg xmlns="http://www.w3.org/2000/svg" viewBox="19.99999999999997 171.5169723176288 534.9919523301086 231.96605536474232"> <g transform="rotate(0 130.83437429068937 287.5)"><svg xmlns="http://www.w3.org/2000/svg" xmlns:xlink="http://www.w3.org/1999/xlink" version="1.1" id="0000_1" x="89.99999999999997" y="241.5169723176288" viewBox="197.66964721679688 159.56784057617188 604.6405029296875 680.87744140625" xml:space="preserve" height="91.96605536474235" width="81.6687485813788" preserveAspectRatio="xMinYMin" enable-background="new 0 0 1000 1000" style="overflow: visible;"><path class="st0" d="M291.05,613.79c-0.01,3.72,1.25,6.16,4.55,8.02c40.57,22.9,81.09,45.88,121.62,68.84   c26.36,14.93,52.75,29.81,79.05,44.85c2.9,1.66,5.02,1.71,7.96,0.03c25.97-14.83,52.05-29.46,78.07-44.2   c26.02-14.74,52-29.54,78.01-44.29c14.86-8.43,29.71-16.9,44.66-25.17c4.24-2.35,5.08-5.75,5.07-10.19   c-0.09-50.44-0.05-100.88-0.05-151.32c0-23.95-0.19-47.91,0.14-71.86c0.08-5.5-1.93-8.65-6.39-11.14   c-21.37-11.91-42.7-23.9-64.03-35.88c-13.71-7.7-27.35-15.53-41.12-23.12c-3.86-2.12-5.42-4.81-5.39-9.3   c0.17-30.19,0.07-60.37,0.11-90.56c0.01-6.85,0.92-7.25,6.92-3.85c37.66,21.37,75.35,42.69,113.01,64.07   c28.03,15.91,55.99,31.95,84.1,47.71c3.86,2.17,4.92,4.82,4.9,8.91c-0.12,23.65-0.05,47.31-0.05,70.96   c0,84.91-0.06,169.82,0.12,254.74c0.02,6.94-1.62,10.98-8.33,14.6c-25.13,13.54-49.7,28.12-74.53,42.2   c-53.71,30.46-107.47,60.86-161.2,91.3c-17.06,9.66-34.19,19.21-51.1,29.12c-4.68,2.74-8.44,3-13.27,0.23   c-41.77-23.94-83.64-47.72-125.54-71.44c-42.24-23.91-84.56-47.69-126.84-71.55c-12.69-7.16-25.32-14.41-38.04-21.52   c-3.93-2.2-5.76-5.02-5.71-9.8c0.23-22.98,0.1-45.96,0.1-68.94c0-84.79,0.12-169.58-0.18-254.37c-0.03-8.42,2.3-13.15,9.96-17.37   c37.77-20.78,75.13-42.31,112.64-63.56c26.7-15.12,53.4-30.23,80.13-45.3c5.47-3.09,6.32-2.64,6.33,3.49   c0.05,30.58-0.01,61.15,0.06,91.73c0.01,3.69-1.19,5.96-4.6,7.88c-30.27,17.08-60.41,34.39-90.61,51.6   c-4.89,2.79-9.91,5.33-14.8,8.12c-3.27,1.86-5.82,3.97-5.78,8.55C291.21,408.97,291.13,565.1,291.05,613.79z" style="fill: #FC832B; fill-opacity: 1;"></path><path class="st1" d="M546.25,331.16c0,45.95-0.07,91.9,0.1,137.85c0.02,5.04-1.23,8.21-5.94,10.67   c-12.2,6.38-24.18,13.19-36.09,20.1c-3.51,2.03-6.29,1.88-9.67-0.11c-12.39-7.25-24.9-14.31-37.4-21.38   c-2.27-1.28-3.46-3.02-3.42-5.62c0.02-1.56-0.03-3.11-0.03-4.67c0-91.7,0.07-183.41-0.15-275.11c-0.02-6.43,2.26-9.86,7.69-12.73   c11.49-6.06,22.73-12.59,33.94-19.15c3.06-1.79,5.68-1.96,8.7-0.25c12.48,7.1,24.95,14.23,37.54,21.14   c4.06,2.23,4.8,5.42,4.79,9.66C546.21,238.1,546.25,284.63,546.25,331.16z" style="fill: #000; fill-opacity: 1;"></path></svg></g> <g transform="rotate(0 337.5269559922179 287.5000917715826)"><svg xmlns="http://www.w3.org/2000/svg" x="190.06195965432727" y="273.7050916952887" viewBox="1.690000057220459 9.880000114440918 294.92999267578125 27.59000015258789" height="27.59000015258789" width="294.92999267578125" style="overflow: visible;"><g fill="#000000" fill-opacity="1" style=""><path d="M21.91 31.72L21.91 23.37L26.62 23.37L26.62 34.06Q24.56 35.70 21.80 36.58Q19.04 37.47 16.13 37.47L16.13 37.47Q12.03 37.47 8.73 35.68Q5.44 33.90 3.56 30.76Q1.69 27.62 1.69 23.67L1.69 23.67Q1.69 19.73 3.56 16.59Q5.44 13.45 8.75 11.66Q12.07 9.88 16.20 9.88L16.20 9.88Q19.58 9.88 22.33 10.99Q25.09 12.11 26.97 14.25L26.97 14.25L23.83 17.32Q20.76 14.25 16.43 14.25L16.43 14.25Q13.60 14.25 11.40 15.44Q9.19 16.63 7.95 18.77Q6.70 20.92 6.70 23.67L6.70 23.67Q6.70 26.36 7.95 28.50Q9.19 30.65 11.40 31.87Q13.60 33.10 16.40 33.10L16.40 33.10Q19.54 33.10 21.91 31.72L21.91 31.72ZM33.18 37.08L33.18 10.27L38.16 10.27L38.16 37.08L33.18 37.08ZM63.71 31.72L63.71 23.37L68.42 23.37L68.42 34.06Q66.35 35.70 63.59 36.58Q60.83 37.47 57.92 37.47L57.92 37.47Q53.82 37.47 50.53 35.68Q47.23 33.90 45.36 30.76Q43.48 27.62 43.48 23.67L43.48 23.67Q43.48 19.73 45.36 16.59Q47.23 13.45 50.55 11.66Q53.86 9.88 58.00 9.88L58.00 9.88Q61.37 9.88 64.13 10.99Q66.89 12.11 68.76 14.25L68.76 14.25L65.62 17.32Q62.56 14.25 58.23 14.25L58.23 14.25Q55.39 14.25 53.19 15.44Q50.99 16.63 49.74 18.77Q48.50 20.92 48.50 23.67L48.50 23.67Q48.50 26.36 49.74 28.50Q50.99 30.65 53.19 31.87Q55.39 33.10 58.19 33.10L58.19 33.10Q61.33 33.10 63.71 31.72L63.71 31.72ZM95.04 37.08L92.36 30.88L78.95 30.88L76.31 37.08L71.18 37.08L83.24 10.27L88.15 10.27L100.25 37.08L95.04 37.08ZM80.64 26.97L90.71 26.97L85.66 15.25L80.64 26.97ZM108.22 32.87L124.50 32.87L124.50 37.08L101.63 37.08L101.63 33.75L117.42 14.48L101.90 14.48L101.90 10.27L124.01 10.27L124.01 13.60L108.22 32.87ZM134.04 32.91L149.17 32.91L149.17 37.08L129.06 37.08L129.06 10.27L148.64 10.27L148.64 14.44L134.04 14.44L134.04 21.41L146.99 21.41L146.99 25.51L134.04 25.51L134.04 32.91ZM173.61 10.27L178.56 10.27L178.56 37.08L174.46 37.08L159.67 18.92L159.67 37.08L154.73 37.08L154.73 10.27L158.83 10.27L173.61 28.43L173.61 10.27ZM201.77 37.08L201.77 14.48L192.88 14.48L192.88 10.27L215.64 10.27L215.64 14.48L206.75 14.48L206.75 37.08L201.77 37.08ZM224.37 32.91L239.51 32.91L239.51 37.08L219.39 37.08L219.39 10.27L238.97 10.27L238.97 14.44L224.37 14.44L224.37 21.41L237.32 21.41L237.32 25.51L224.37 25.51L224.37 32.91ZM257.36 37.47Q253.30 37.47 250.02 35.68Q246.75 33.90 244.89 30.76Q243.03 27.62 243.03 23.67L243.03 23.67Q243.03 19.73 244.91 16.59Q246.78 13.45 250.06 11.66Q253.34 9.88 257.40 9.88L257.40 9.88Q260.69 9.88 263.41 11.03Q266.13 12.18 268.01 14.37L268.01 14.37L264.79 17.39Q261.88 14.25 257.63 14.25L257.63 14.25Q254.87 14.25 252.68 15.46Q250.50 16.66 249.27 18.81Q248.05 20.95 248.05 23.67L248.05 23.67Q248.05 26.39 249.27 28.54Q250.50 30.69 252.68 31.89Q254.87 33.10 257.63 33.10L257.63 33.10Q261.88 33.10 264.79 29.92L264.79 29.92L268.01 32.98Q266.13 35.17 263.39 36.32Q260.65 37.47 257.36 37.47L257.36 37.47ZM291.64 10.27L296.62 10.27L296.62 37.08L291.64 37.08L291.64 25.59L277.78 25.59L277.78 37.08L272.80 37.08L272.80 10.27L277.78 10.27L277.78 21.34L291.64 21.34L291.64 10.27Z" transform="translate(0, 0)"></path></g></svg></g></svg>